HIERARCHY
ROOT mixamorig:Hips
{
	OFFSET -0.000008 104.274872 1.554316
	CHANNELS 6 Xposition Yposition Zposition Xrotation Yrotation Zrotation
	JOINT mixamorig:Spine
	{
		OFFSET -0.000005 10.181595 0.131519
		CHANNELS 6 Xposition Yposition Zposition Xrotation Yrotation Zrotation
		JOINT mixamorig:Spine1
		{
			OFFSET -0.000000 9.893959 -1.470707
			CHANNELS 6 Xposition Yposition Zposition Xrotation Yrotation Zrotation
			JOINT mixamorig:Spine2
			{
				OFFSET -0.000000 9.220757 -1.370641
				CHANNELS 6 Xposition Yposition Zposition Xrotation Yrotation Zrotation
				JOINT mixamorig:Neck
				{
					OFFSET 0.000001 16.740417 -2.049036
					CHANNELS 6 Xposition Yposition Zposition Xrotation Yrotation Zrotation
					JOINT mixamorig:Head
					{
						OFFSET 0.000000 9.617874 1.685006
						CHANNELS 6 Xposition Yposition Zposition Xrotation Yrotation Zrotation
						JOINT mixamorig:HeadTop_End
						{
							OFFSET 0.000002 22.037354 7.501101
							CHANNELS 6 Xposition Yposition Zposition Xrotation Yrotation Zrotation
							End Site
							{
								OFFSET 0.000168 2310.654297 -282.823242
							}
						}
					}
				}
				JOINT mixamorig:RightShoulder
				{
					OFFSET -4.569970 11.014908 -2.160885
					CHANNELS 6 Xposition Yposition Zposition Xrotation Yrotation Zrotation
					JOINT mixamorig:RightArm
					{
						OFFSET -10.592851 -0.524811 -2.232101
						CHANNELS 6 Xposition Yposition Zposition Xrotation Yrotation Zrotation
						JOINT mixamorig:RightForeArm
						{
							OFFSET -27.841511 0.000031 -0.000004
							CHANNELS 6 Xposition Yposition Zposition Xrotation Yrotation Zrotation
							JOINT mixamorig:RightHand
							{
								OFFSET -28.328831 -0.000015 0.000015
								CHANNELS 6 Xposition Yposition Zposition Xrotation Yrotation Zrotation
								JOINT mixamorig:RightHandThumb1
								{
									OFFSET -2.464806 -1.573990 2.681852
									CHANNELS 6 Xposition Yposition Zposition Xrotation Yrotation Zrotation
									JOINT mixamorig:RightHandThumb2
									{
										OFFSET -3.215179 -1.872803 1.924282
										CHANNELS 6 Xposition Yposition Zposition Xrotation Yrotation Zrotation
										JOINT mixamorig:RightHandThumb3
										{
											OFFSET -2.654831 -1.527969 1.512609
											CHANNELS 6 Xposition Yposition Zposition Xrotation Yrotation Zrotation
											JOINT mixamorig:RightHandThumb4
											{
												OFFSET -2.018814 -1.152008 1.108052
												CHANNELS 6 Xposition Yposition Zposition Xrotation Yrotation Zrotation
												End Site
												{
													OFFSET -188.809540 -114.533607 132.431396
												}
											}
										}
									}
								}
								JOINT mixamorig:RightHandIndex1
								{
									OFFSET -9.108284 -0.517868 2.259835
									CHANNELS 6 Xposition Yposition Zposition Xrotation Yrotation Zrotation
									JOINT mixamorig:RightHandIndex2
									{
										OFFSET -3.699989 0.000000 0.001215
										CHANNELS 6 Xposition Yposition Zposition Xrotation Yrotation Zrotation
										JOINT mixamorig:RightHandIndex3
										{
											OFFSET -2.850006 0.000031 -0.000522
											CHANNELS 6 Xposition Yposition Zposition Xrotation Yrotation Zrotation
											JOINT mixamorig:RightHandIndex4
											{
												OFFSET -2.772186 -0.000015 -0.000020
												CHANNELS 6 Xposition Yposition Zposition Xrotation Yrotation Zrotation
												End Site
												{
													OFFSET -277.218445 0.000000 -0.050231
												}
											}
										}
									}
								}
								JOINT mixamorig:RightHandMiddle1
								{
									OFFSET -9.532516 -0.000031 -0.000023
									CHANNELS 6 Xposition Yposition Zposition Xrotation Yrotation Zrotation
									JOINT mixamorig:RightHandMiddle2
									{
										OFFSET -3.700005 -0.000015 0.003713
										CHANNELS 6 Xposition Yposition Zposition Xrotation Yrotation Zrotation
										JOINT mixamorig:RightHandMiddle3
										{
											OFFSET -2.949974 0.000015 -0.002054
											CHANNELS 6 Xposition Yposition Zposition Xrotation Yrotation Zrotation
											JOINT mixamorig:RightHandMiddle4
											{
												OFFSET -2.946640 0.000000 -0.000156
												CHANNELS 6 Xposition Yposition Zposition Xrotation Yrotation Zrotation
												End Site
												{
													OFFSET -294.664337 0.000000 -0.113670
												}
											}
										}
									}
								}
								JOINT mixamorig:RightHandRing1
								{
									OFFSET -9.103600 -0.043076 -1.865134
									CHANNELS 6 Xposition Yposition Zposition Xrotation Yrotation Zrotation
									JOINT mixamorig:RightHandRing2
									{
										OFFSET -3.379288 0.000000 -0.001055
										CHANNELS 6 Xposition Yposition Zposition Xrotation Yrotation Zrotation
										JOINT mixamorig:RightHandRing3
										{
											OFFSET -2.889687 -0.000015 0.000379
											CHANNELS 6 Xposition Yposition Zposition Xrotation Yrotation Zrotation
											JOINT mixamorig:RightHandRing4
											{
												OFFSET -2.638809 -0.000015 0.000941
												CHANNELS 6 Xposition Yposition Zposition Xrotation Yrotation Zrotation
												End Site
												{
													OFFSET -263.880371 0.000000 0.516020
												}
											}
										}
									}
								}
								JOINT mixamorig:RightHandPinky1
								{
									OFFSET -8.076683 -0.486710 -3.806280
									CHANNELS 6 Xposition Yposition Zposition Xrotation Yrotation Zrotation
									JOINT mixamorig:RightHandPinky2
									{
										OFFSET -3.600014 -0.000015 -0.003747
										CHANNELS 6 Xposition Yposition Zposition Xrotation Yrotation Zrotation
										JOINT mixamorig:RightHandPinky3
										{
											OFFSET -2.099983 0.000000 -0.005739
											CHANNELS 6 Xposition Yposition Zposition Xrotation Yrotation Zrotation
											JOINT mixamorig:RightHandPinky4
											{
												OFFSET -2.115768 -0.000031 -0.003680
												CHANNELS 6 Xposition Yposition Zposition Xrotation Yrotation Zrotation
												End Site
												{
													OFFSET -211.577087 0.000000 -0.350686
												}
											}
										}
									}
								}
							}
						}
					}
				}
				JOINT mixamorig:LeftShoulder
				{
					OFFSET 4.570447 11.014725 -2.160855
					CHANNELS 6 Xposition Yposition Zposition Xrotation Yrotation Zrotation
					JOINT mixamorig:LeftArm
					{
						OFFSET 10.592371 -0.524597 -2.232119
						CHANNELS 6 Xposition Yposition Zposition Xrotation Yrotation Zrotation
						JOINT mixamorig:LeftForeArm
						{
							OFFSET 27.841532 -0.000031 0.000026
							CHANNELS 6 Xposition Yposition Zposition Xrotation Yrotation Zrotation
							JOINT mixamorig:LeftHand
							{
								OFFSET 28.328846 -0.000061 0.000022
								CHANNELS 6 Xposition Yposition Zposition Xrotation Yrotation Zrotation
								JOINT mixamorig:LeftHandThumb1
								{
									OFFSET 2.466141 -1.576172 2.681732
									CHANNELS 6 Xposition Yposition Zposition Xrotation Yrotation Zrotation
									JOINT mixamorig:LeftHandThumb2
									{
										OFFSET 3.217812 -1.872070 1.916482
										CHANNELS 6 Xposition Yposition Zposition Xrotation Yrotation Zrotation
										JOINT mixamorig:LeftHandThumb3
										{
											OFFSET 2.656029 -1.528778 1.514513
											CHANNELS 6 Xposition Yposition Zposition Xrotation Yrotation Zrotation
											JOINT mixamorig:LeftHandThumb4
											{
												OFFSET 2.020889 -1.154053 1.115139
												CHANNELS 6 Xposition Yposition Zposition Xrotation Yrotation Zrotation
												End Site
												{
													OFFSET 190.885437 -115.081749 130.048782
												}
											}
										}
									}
								}
								JOINT mixamorig:LeftHandIndex1
								{
									OFFSET 9.109314 -0.518021 2.259871
									CHANNELS 6 Xposition Yposition Zposition Xrotation Yrotation Zrotation
									JOINT mixamorig:LeftHandIndex2
									{
										OFFSET 3.699989 0.000000 -0.000322
										CHANNELS 6 Xposition Yposition Zposition Xrotation Yrotation Zrotation
										JOINT mixamorig:LeftHandIndex3
										{
											OFFSET 2.850006 0.000000 0.000352
											CHANNELS 6 Xposition Yposition Zposition Xrotation Yrotation Zrotation
											JOINT mixamorig:LeftHandIndex4
											{
												OFFSET 2.774864 -0.000031 -0.000027
												CHANNELS 6 Xposition Yposition Zposition Xrotation Yrotation Zrotation
												End Site
												{
													OFFSET 277.486267 0.000000 -0.009857
												}
											}
										}
									}
								}
								JOINT mixamorig:LeftHandMiddle1
								{
									OFFSET 9.533394 0.000061 0.000044
									CHANNELS 6 Xposition Yposition Zposition Xrotation Yrotation Zrotation
									JOINT mixamorig:LeftHandMiddle2
									{
										OFFSET 3.699989 -0.000015 -0.000231
										CHANNELS 6 Xposition Yposition Zposition Xrotation Yrotation Zrotation
										JOINT mixamorig:LeftHandMiddle3
										{
											OFFSET 2.949997 -0.000015 -0.000059
											CHANNELS 6 Xposition Yposition Zposition Xrotation Yrotation Zrotation
											JOINT mixamorig:LeftHandMiddle4
											{
												OFFSET 2.952896 0.000031 0.000063
												CHANNELS 6 Xposition Yposition Zposition Xrotation Yrotation Zrotation
												End Site
												{
													OFFSET 295.289337 0.000000 0.022810
												}
											}
										}
									}
								}
								JOINT mixamorig:LeftHandRing1
								{
									OFFSET 9.104523 -0.042999 -1.865074
									CHANNELS 6 Xposition Yposition Zposition Xrotation Yrotation Zrotation
									JOINT mixamorig:LeftHandRing2
									{
										OFFSET 3.150009 -0.000031 0.000043
										CHANNELS 6 Xposition Yposition Zposition Xrotation Yrotation Zrotation
										JOINT mixamorig:LeftHandRing3
										{
											OFFSET 2.949982 -0.000015 0.000040
											CHANNELS 6 Xposition Yposition Zposition Xrotation Yrotation Zrotation
											JOINT mixamorig:LeftHandRing4
											{
												OFFSET 2.644348 0.000000 0.000057
												CHANNELS 6 Xposition Yposition Zposition Xrotation Yrotation Zrotation
												End Site
												{
													OFFSET 264.434631 0.000000 0.012105
												}
											}
										}
									}
								}
								JOINT mixamorig:LeftHandPinky1
								{
									OFFSET 8.077789 -0.486847 -3.806259
									CHANNELS 6 Xposition Yposition Zposition Xrotation Yrotation Zrotation
									JOINT mixamorig:LeftHandPinky2
									{
										OFFSET 3.599953 0.000031 0.014727
										CHANNELS 6 Xposition Yposition Zposition Xrotation Yrotation Zrotation
										JOINT mixamorig:LeftHandPinky3
										{
											OFFSET 2.100021 0.000015 0.007705
											CHANNELS 6 Xposition Yposition Zposition Xrotation Yrotation Zrotation
											JOINT mixamorig:LeftHandPinky4
											{
												OFFSET 2.125504 0.000031 0.007517
												CHANNELS 6 Xposition Yposition Zposition Xrotation Yrotation Zrotation
												End Site
												{
													OFFSET 212.550781 0.000000 0.625752
												}
											}
										}
									}
								}
							}
						}
					}
				}
			}
		}
	}
	JOINT mixamorig:RightUpLeg
	{
		OFFSET -8.207787 -6.751648 -1.599560
		CHANNELS 6 Xposition Yposition Zposition Xrotation Yrotation Zrotation
		JOINT mixamorig:RightLeg
		{
			OFFSET -0.000002 -44.370117 0.345942
			CHANNELS 6 Xposition Yposition Zposition Xrotation Yrotation Zrotation
			JOINT mixamorig:RightFoot
			{
				OFFSET 0.000003 -44.423679 -3.043532
				CHANNELS 6 Xposition Yposition Zposition Xrotation Yrotation Zrotation
				JOINT mixamorig:RightToeBase
				{
					OFFSET -0.000002 -8.728671 10.710558
					CHANNELS 6 Xposition Yposition Zposition Xrotation Yrotation Zrotation
					JOINT mixamorig:RightToe_End
					{
						OFFSET -0.000001 -0.000679 9.278119
						CHANNELS 6 Xposition Yposition Zposition Xrotation Yrotation Zrotation
						End Site
						{
							OFFSET 0.000000 -0.067690 927.812134
						}
					}
				}
			}
		}
	}
	JOINT mixamorig:LeftUpLeg
	{
		OFFSET 8.207793 -6.751686 -1.599556
		CHANNELS 6 Xposition Yposition Zposition Xrotation Yrotation Zrotation
		JOINT mixamorig:LeftLeg
		{
			OFFSET -0.000004 -44.370014 0.346954
			CHANNELS 6 Xposition Yposition Zposition Xrotation Yrotation Zrotation
			JOINT mixamorig:LeftFoot
			{
				OFFSET -0.000001 -44.423672 -3.044401
				CHANNELS 6 Xposition Yposition Zposition Xrotation Yrotation Zrotation
				JOINT mixamorig:LeftToeBase
				{
					OFFSET -0.000002 -8.728669 10.710558
					CHANNELS 6 Xposition Yposition Zposition Xrotation Yrotation Zrotation
					JOINT mixamorig:LeftToe_End
					{
						OFFSET -0.000003 -0.000679 9.278133
						CHANNELS 6 Xposition Yposition Zposition Xrotation Yrotation Zrotation
						End Site
						{
							OFFSET 0.000000 -0.068021 927.813477
						}
					}
				}
			}
		}
	}
}
MOTION
Frames: 3
Frame Time: 0.033333
0.000006 104.270477 1.554256 0.000010 0.000003 -0.000113 -0.000005 10.181587 0.131522 0.000001 -0.000003 0.000084 -0.000000 9.893967 -1.470711 0.000001 0.000000 -0.000000 -0.000000 9.220802 -1.370642 0.000000 -0.000000 -0.000000 0.000001 16.740433 -2.049030 0.000000 -0.000000 -0.000000 0.000000 9.617859 1.685014 0.000000 0.000000 0.000000 0.000002 22.037384 7.501101 0.000000 -0.000000 0.000000 -4.569968 11.014880 -2.160881 0.000008 0.000001 -0.000038 -10.592879 -0.524734 -2.231936 74.635321 23.731342 -18.198588 -27.841536 0.000016 0.000516 -60.414574 108.624187 78.053346 -28.328815 0.000006 0.000019 -0.000324 -0.000044 0.000008 -2.464424 -1.573864 2.682372 -35.777118 -156.636400 16.705038 -3.215276 -1.872594 1.924637 154.719030 32.730123 10.564734 -2.654941 -1.527895 1.513074 147.520461 26.600095 -39.317024 -2.018827 -1.152010 1.108069 -0.000003 -0.000004 0.000002 -9.108395 -0.517563 2.260159 106.454680 16.861345 -22.496965 -3.700078 0.000297 0.001533 100.740509 13.985841 -16.821414 -2.850079 0.000363 -0.000242 99.303656 11.201074 -13.168141 -2.772165 -0.000000 -0.000020 -0.000001 -0.000000 0.000001 -9.532607 0.000271 0.000244 93.466638 16.334170 -17.489910 -3.700058 0.000326 0.003958 91.240665 11.241586 -11.390295 -2.950055 0.000344 -0.001813 90.432265 9.816214 -9.883189 -2.946618 -0.000012 -0.000153 0.000001 0.000000 0.000000 -9.103711 -0.042761 -1.864896 88.235908 17.873763 -17.296436 -3.379318 0.000331 -0.000825 90.696962 8.166296 -8.283120 -2.889741 0.000360 0.000625 93.096168 4.590610 -4.891809 -2.638809 -0.000028 0.000940 0.000001 -0.000001 0.000000 -8.076757 -0.486391 -3.806077 76.102753 16.420652 -12.768166 -3.600017 0.000278 -0.003562 79.961127 5.991582 -4.736759 -2.100017 0.000322 -0.005558 81.671973 1.843273 -1.414081 -2.115777 -0.000043 -0.003678 -0.000000 -0.000002 -0.000002 4.570446 11.014691 -2.160851 -0.000018 0.000010 -0.000021 10.592401 -0.524474 -2.232371 74.813869 -13.097516 10.034544 27.841816 0.000057 -0.000207 96.108138 -71.428998 77.319715 28.328833 -0.000029 0.000020 0.000020 -0.000089 -0.000000 2.466171 -1.576154 2.681876 -14.496291 157.822777 -58.357621 3.217801 -1.871737 1.916376 157.434262 -30.826990 2.346980 2.656097 -1.528594 1.514451 144.127565 -27.306772 37.987094 2.020890 -1.154082 1.115151 -0.000001 0.000003 0.000006 9.109382 -0.517863 2.259737 82.137703 -15.561821 13.569801 3.700059 0.000133 -0.000461 80.529638 -15.718991 13.352513 2.850055 0.000158 0.000213 77.345895 -14.177209 11.366837 2.774864 -0.000033 -0.000027 0.000000 -0.000000 0.000003 9.533476 0.000181 -0.000097 77.692726 -16.000381 12.908185 3.700050 0.000141 -0.000363 80.679308 -17.467644 14.864022 2.950070 0.000131 -0.000185 77.419156 -20.636920 16.605541 2.952880 -0.000028 0.000064 0.000000 -0.000000 0.000001 9.104595 -0.042882 -1.865225 75.115210 -15.685813 12.093560 3.150053 0.000146 -0.000075 80.860048 -17.002626 14.516503 2.950037 0.000114 -0.000053 78.670877 -18.862382 15.505585 2.644332 0.000029 0.000056 0.000000 -0.000001 0.000000 8.077839 -0.486766 -3.806396 63.516367 -17.788565 11.448762 3.599996 0.000110 0.014579 61.695746 -15.122143 9.387445 2.100051 0.000123 0.007565 63.454110 -14.756912 9.472133 2.125499 -0.000027 0.007520 -0.000003 0.000000 -0.000001 -8.207786 -6.751667 -1.599560 -0.077001 -0.000003 0.000080 -0.000002 -44.370110 0.345938 0.153719 -0.000000 -0.000000 0.000000 -44.423679 -3.043532 -0.076700 0.000000 -0.000002 -0.000006 -8.728667 10.710559 -0.000009 -0.000000 -0.000000 -0.000001 -0.000679 9.278123 0.000000 -0.000000 -0.000000 8.207792 -6.751710 -1.599556 -0.074518 -0.000003 0.000081 -0.000002 -44.370014 0.346960 0.148822 0.000002 0.000000 -0.000001 -44.423664 -3.044403 -0.074314 0.000000 -0.000002 -0.000004 -8.728671 10.710558 0.000007 -0.000000 -0.000000 0.000000 -0.000680 9.278137 -0.000000 0.000000 -0.000001 
0.000006 104.270477 1.554256 0.000010 0.000003 -0.000113 -0.000005 10.181587 0.131522 0.000001 -0.000003 0.000084 -0.000000 9.893967 -1.470711 0.000001 0.000000 -0.000000 -0.000000 9.220802 -1.370642 0.000000 -0.000000 -0.000000 0.000001 16.740433 -2.049030 0.000000 -0.000000 -0.000000 0.000000 9.617859 1.685014 0.000000 0.000000 0.000000 0.000002 22.037384 7.501101 0.000000 -0.000000 0.000000 -4.569968 11.014880 -2.160881 0.000008 0.000001 -0.000038 -10.592874 -0.524779 -2.231893 74.851210 31.427661 -24.301294 -27.841530 0.000001 0.000535 -57.677485 106.267642 72.578137 -28.328810 0.000007 0.000023 -0.000320 -0.000045 0.000006 -2.464416 -1.573775 2.682320 -48.606222 -165.810929 -11.738789 -3.215270 -1.872541 1.924620 150.391026 33.128224 19.329560 -2.654969 -1.527861 1.513068 148.974622 27.655887 -26.869365 -2.018826 -1.151982 1.108077 -0.000004 -0.000006 0.000002 -9.108374 -0.517555 2.260133 104.059319 14.659918 -18.777356 -3.700065 0.000330 0.001522 101.931018 11.450009 -14.069482 -2.850071 0.000376 -0.000234 100.921017 9.723560 -11.764798 -2.772176 0.000001 -0.000021 -0.000000 -0.000003 -0.000001 -9.532573 0.000268 0.000257 92.174776 16.749039 -17.536086 -3.700074 0.000323 0.003954 92.171149 12.228112 -12.598311 -2.950056 0.000344 -0.001797 94.169922 11.578753 -12.439416 -2.946639 0.000014 -0.000154 -0.000002 0.000000 -0.000000 -9.103710 -0.042795 -1.864895 86.808747 20.697292 -19.554094 -3.379357 0.000302 -0.000820 89.192128 11.631307 -11.487068 -2.889752 0.000352 0.000633 95.429183 7.796446 -8.620433 -2.638820 -0.000043 0.000938 0.000004 -0.000001 -0.000002 -8.076757 -0.486418 -3.806063 75.543354 21.000252 -16.222451 -3.600051 0.000248 -0.003552 77.171166 12.206523 -9.453538 -2.100008 0.000299 -0.005519 81.290152 7.246305 -6.029891 -2.115778 -0.000013 -0.003677 0.000001 0.000000 -0.000005 4.570446 11.014691 -2.160851 -0.000018 0.000010 -0.000021 10.592386 -0.524487 -2.232348 74.047187 -7.213970 5.443971 27.841822 0.000058 -0.000204 97.644371 -72.745285 80.193914 28.328840 -0.000028 0.000019 0.000020 -0.000089 -0.000000 2.466255 -1.575953 2.681786 13.805394 186.115688 -129.679611 3.217875 -1.871862 1.916418 167.017140 -18.817649 47.962514 2.656095 -1.528687 1.514487 143.814278 -25.531078 61.861706 2.020883 -1.154075 1.115151 -0.000003 -0.000000 0.000003 9.109374 -0.517894 2.259748 84.821018 -20.871016 19.087800 3.700034 0.000163 -0.000456 81.698953 -13.571446 11.763653 2.850050 0.000180 0.000195 80.890497 -10.092603 8.608229 2.774888 -0.000032 -0.000021 0.000001 0.000001 -0.000000 9.533463 0.000180 -0.000104 78.145465 -19.946483 16.242502 3.700037 0.000165 -0.000392 80.818569 -10.425529 8.880228 2.950052 0.000168 -0.000214 80.928869 -10.346439 8.834572 2.952855 -0.000015 0.000059 -0.000000 -0.000001 0.000001 9.104591 -0.042884 -1.865209 75.211762 -19.824756 15.333976 3.150023 0.000181 -0.000097 80.938172 -12.078086 10.316338 2.950030 0.000184 -0.000087 81.405152 -9.953518 8.569238 2.644318 0.000029 0.000052 -0.000001 0.000003 -0.000000 8.077838 -0.486780 -3.806382 64.123414 -20.698868 13.450633 3.599998 0.000114 0.014589 63.778940 -16.437742 10.609735 2.100053 0.000136 0.007567 65.816365 -12.215209 8.241940 2.125501 -0.000017 0.007522 0.000003 -0.000001 0.000001 -8.207786 -6.751667 -1.599560 -0.077001 -0.000003 0.000080 -0.000002 -44.370110 0.345938 0.153719 -0.000000 -0.000000 0.000000 -44.423679 -3.043532 -0.076700 0.000000 -0.000002 -0.000006 -8.728667 10.710559 -0.000009 -0.000000 -0.000000 -0.000001 -0.000679 9.278123 0.000000 -0.000000 -0.000000 8.207792 -6.751710 -1.599556 -0.074518 -0.000003 0.000081 -0.000002 -44.370014 0.346960 0.148822 0.000002 0.000000 -0.000001 -44.423664 -3.044403 -0.074314 0.000000 -0.000002 -0.000004 -8.728671 10.710558 0.000007 -0.000000 -0.000000 0.000000 -0.000680 9.278137 -0.000000 0.000000 -0.000001 
0.000006 104.270477 1.554256 0.000010 0.000003 -0.000113 -0.000005 10.181587 0.131522 0.000001 -0.000003 0.000084 -0.000000 9.893967 -1.470711 0.000001 0.000000 -0.000000 -0.000000 9.220802 -1.370642 0.000000 -0.000000 -0.000000 0.000001 16.740433 -2.049030 0.000000 -0.000000 -0.000000 0.000000 9.617859 1.685014 0.000000 0.000000 0.000000 0.000002 22.037384 7.501101 0.000000 -0.000000 0.000000 -4.569968 11.014880 -2.160881 0.000008 0.000001 -0.000038 -10.592873 -0.524789 -2.231872 75.149614 35.454989 -27.635821 -27.841537 -0.000007 0.000537 -55.785164 103.598643 67.850505 -28.328815 0.000023 0.000029 -0.000320 -0.000040 0.000001 -2.464413 -1.573746 2.682334 -49.371490 -167.189562 -13.836318 -3.215280 -1.872553 1.924631 151.131145 32.237318 11.646537 -2.654963 -1.527849 1.513067 146.911700 27.933375 -26.430920 -2.018834 -1.152000 1.108070 -0.000001 -0.000000 0.000002 -9.108366 -0.517552 2.260142 104.601724 14.311218 -18.511853 -3.700062 0.000335 0.001520 102.806573 11.406541 -14.234904 -2.850088 0.000376 -0.000239 101.792331 9.714959 -11.936848 -2.772171 -0.000015 -0.000018 0.000000 0.000002 -0.000000 -9.532588 0.000263 0.000233 92.124424 15.923287 -16.664147 -3.700068 0.000305 0.003967 92.627856 12.252874 -12.724272 -2.950061 0.000335 -0.001819 94.376180 11.616858 -12.525107 -2.946631 0.000003 -0.000160 -0.000004 -0.000002 -0.000000 -9.103703 -0.042767 -1.864883 87.079728 19.140961 -18.162439 -3.379357 0.000300 -0.000831 89.969294 11.596441 -11.608021 -2.889741 0.000356 0.000627 95.829385 8.088214 -9.003846 -2.638817 -0.000017 0.000943 -0.000001 -0.000002 0.000000 -8.076757 -0.486402 -3.806078 75.324016 19.892040 -15.294124 -3.600049 0.000259 -0.003562 78.136688 11.582643 -9.111507 -2.100023 0.000302 -0.005529 82.315282 7.003635 -5.928077 -2.115775 -0.000029 -0.003682 -0.000005 0.000001 -0.000004 4.570446 11.014691 -2.160851 -0.000018 0.000010 -0.000021 10.592419 -0.524473 -2.232372 72.805261 -20.866114 15.463200 27.841822 0.000043 -0.000197 99.933304 -75.199638 85.022099 28.328831 -0.000029 0.000020 0.000023 -0.000088 -0.000000 2.466245 -1.575909 2.681781 17.210670 190.253772 -137.622397 3.217865 -1.871882 1.916442 167.836900 -16.066032 55.306770 2.656092 -1.528675 1.514496 145.478508 -24.743745 62.708896 2.020883 -1.154078 1.115156 -0.000000 0.000002 0.000002 9.109380 -0.517852 2.259748 86.454731 -22.455835 21.126605 3.700041 0.000152 -0.000459 83.610955 -14.757163 13.227022 2.850058 0.000180 0.000215 82.595108 -10.626912 9.340145 2.774889 -0.000046 -0.000029 -0.000003 -0.000000 -0.000001 9.533463 0.000191 -0.000077 79.975368 -21.494737 18.083110 3.700027 0.000163 -0.000372 81.900074 -10.994215 9.545237 2.950047 0.000173 -0.000197 82.091122 -10.359064 9.027915 2.952879 -0.000015 0.000066 0.000001 -0.000002 0.000001 9.104584 -0.042873 -1.865212 76.902179 -21.101748 16.827373 3.150050 0.000175 -0.000093 81.205629 -12.561654 10.780724 2.950025 0.000168 -0.000081 81.593529 -9.917275 8.566324 2.644333 0.000030 0.000058 -0.000000 -0.000001 0.000000 8.077835 -0.486761 -3.806401 64.741041 -21.418112 14.078545 3.599995 0.000113 0.014579 65.060837 -16.621993 10.993479 2.100038 0.000141 0.007544 67.929981 -12.354846 8.672362 2.125525 -0.000030 0.007521 0.000001 -0.000001 -0.000003 -8.207786 -6.751667 -1.599560 -0.077001 -0.000003 0.000080 -0.000002 -44.370110 0.345938 0.153719 -0.000000 -0.000000 0.000000 -44.423679 -3.043532 -0.076700 0.000000 -0.000002 -0.000006 -8.728667 10.710559 -0.000009 -0.000000 -0.000000 -0.000001 -0.000679 9.278123 0.000000 -0.000000 -0.000000 8.207792 -6.751710 -1.599556 -0.074518 -0.000003 0.000081 -0.000002 -44.370014 0.346960 0.148822 0.000002 0.000000 -0.000001 -44.423664 -3.044403 -0.074314 0.000000 -0.000002 -0.000004 -8.728671 10.710558 0.000007 -0.000000 -0.000000 0.000000 -0.000680 9.278137 -0.000000 0.000000 -0.000001 
